<svg width="62" height="62" viewBox="0 0 62 62" fill="none" xmlns="http://www.w3.org/2000/svg">
<path d="M32.9375 46.8565V38.75H29.0625V46.8565C27.7698 47.3135 26.6803 48.2129 25.9865 49.3956C25.2927 50.5782 25.0394 51.9681 25.2712 53.3195C25.5031 54.6709 26.2052 55.8968 27.2535 56.7806C28.3019 57.6644 29.6289 58.1491 31 58.1491C32.3712 58.1491 33.6982 57.6644 34.7465 56.7806C35.7948 55.8968 36.4969 54.6709 36.7288 53.3195C36.9607 51.9681 36.7073 50.5782 36.0135 49.3956C35.3198 48.2129 34.2302 47.3135 32.9375 46.8565Z" fill="#F8F8F8"/>
<path d="M50.375 23.25C48.6615 23.2551 46.9981 23.8285 45.6454 24.8804C44.2927 25.9322 43.3272 27.4031 42.9001 29.0625H19.0999C18.6283 27.2361 17.5068 25.6444 15.9456 24.5857C14.3844 23.5271 12.4907 23.0741 10.6194 23.3118C8.74815 23.5495 7.02781 24.4615 5.78085 25.8768C4.5339 27.2922 3.84595 29.1137 3.84595 31C3.84595 32.8863 4.5339 34.7079 5.78085 36.1232C7.02781 37.5386 8.74815 38.4506 10.6194 38.6882C12.4907 38.9259 14.3844 38.473 15.9456 37.4143C17.5068 36.3556 18.6283 34.7639 19.0999 32.9375H42.9001C43.265 34.3375 44.015 35.6071 45.0652 36.6022C46.1153 37.5972 47.4234 38.2779 48.841 38.5669C50.2586 38.856 51.7288 38.7417 53.0846 38.2371C54.4405 37.7326 55.6278 36.8579 56.5115 35.7125C57.3953 34.5672 57.9402 33.1969 58.0844 31.7574C58.2286 30.3179 57.9662 28.8668 57.3271 27.5689C56.688 26.271 55.6978 25.1783 54.4689 24.4148C53.24 23.6514 51.8217 23.2479 50.375 23.25ZM11.625 34.875C10.8586 34.875 10.1094 34.6478 9.47214 34.222C8.8349 33.7962 8.33823 33.191 8.04494 32.4829C7.75165 31.7749 7.67492 30.9957 7.82443 30.244C7.97395 29.4924 8.34301 28.8019 8.88494 28.26C9.42687 27.7181 10.1173 27.349 10.869 27.1995C11.6207 27.05 12.3998 27.1267 13.1079 27.42C13.8159 27.7133 14.4211 28.2099 14.8469 28.8472C15.2727 29.4844 15.5 30.2336 15.5 31C15.499 32.0274 15.0904 33.0124 14.3639 33.7389C13.6374 34.4654 12.6524 34.874 11.625 34.875ZM50.375 34.875C49.6086 34.875 48.8594 34.6478 48.2221 34.222C47.5849 33.7962 47.0882 33.191 46.7949 32.4829C46.5017 31.7749 46.4249 30.9957 46.5744 30.244C46.724 29.4924 47.093 28.8019 47.6349 28.26C48.1769 27.7181 48.8673 27.349 49.619 27.1995C50.3707 27.05 51.1498 27.1267 51.8579 27.42C52.5659 27.7133 53.1711 28.2099 53.5969 28.8472C54.0227 29.4844 54.25 30.2336 54.25 31C54.249 32.0274 53.8404 33.0124 53.1139 33.7389C52.3874 34.4654 51.4024 34.874 50.375 34.875Z" fill="#F8F8F8"/>
<path d="M36.8125 9.68751C36.8169 8.62089 36.5277 7.57361 35.9766 6.66037C35.4255 5.74712 34.6338 5.00313 33.688 4.50985C32.7423 4.01658 31.6791 3.79304 30.6148 3.86373C29.5505 3.93442 28.5262 4.2966 27.654 4.91062C26.7818 5.52463 26.0954 6.3668 25.6699 7.34491C25.2445 8.32301 25.0964 9.39933 25.2418 10.456C25.3872 11.5127 25.8206 12.509 26.4945 13.3358C27.1684 14.1625 28.0568 14.788 29.0625 15.1435V23.25H32.9375V15.1435C34.0681 14.7462 35.0478 14.0082 35.7417 13.0311C36.4357 12.0541 36.8097 10.8859 36.8125 9.68751Z" fill="#F8F8F8"/>
</svg>
