<svg width="62" height="62" viewBox="0 0 62 62" fill="none" xmlns="http://www.w3.org/2000/svg">
<path d="M54.25 31V15.5C54.25 12.6584 51.925 10.3334 49.0833 10.3334H46.5V5.16669H41.3333V10.3334H20.6667V5.16669H15.5V10.3334H12.9167C10.075 10.3334 7.75 12.6584 7.75 15.5V51.6667C7.75 54.5084 10.075 56.8334 12.9167 56.8334H31V51.6667H12.9167V25.8334H49.0833V31H54.25ZM40.4033 51.6667C41.0276 53.7461 42.3786 55.5319 44.2097 56.6984C46.0409 57.8648 48.2303 58.3343 50.3788 58.0211C52.5272 57.7079 54.4915 56.633 55.9134 54.9923C57.3354 53.3516 58.1203 51.2545 58.125 49.0834C58.125 44.0975 54.0692 40.0417 49.0833 40.0417C46.6292 40.0417 44.3817 41.0234 42.7542 42.625H46.5V46.5H36.1667V36.1667H40.0417V39.8609C42.3667 37.5875 45.57 36.1667 49.0833 36.1667C56.2133 36.1667 62 41.9534 62 49.0834C61.9907 52.2791 60.7975 55.358 58.6508 57.7255C56.5042 60.0929 53.5564 61.5809 50.3768 61.9021C47.1973 62.2232 44.0115 61.3548 41.4348 59.4645C38.858 57.5741 37.0732 54.796 36.425 51.6667H40.4033Z" fill="#F8F8F8"/>
</svg>
