<svg width="62" height="62" viewBox="0 0 62 62" fill="none" xmlns="http://www.w3.org/2000/svg">
<path d="M25.0454 33.5446C22.5189 31.8801 19.5588 30.9952 16.5333 31C13.2861 31 10.2403 31.8757 7.75 33.5833C7.75 30.5301 8.35138 27.5067 9.5198 24.6859C10.6882 21.8651 12.4008 19.302 14.5598 17.1431C16.7187 14.9841 19.2818 13.2715 22.1026 12.1031C24.9234 10.9347 27.9468 10.3333 31 10.3333C34.0532 10.3333 37.0766 10.9347 39.8974 12.1031C42.7182 13.2715 45.2813 14.9841 47.4402 17.1431C49.5992 19.302 51.3118 21.8651 52.4802 24.6859C53.6486 27.5067 54.25 30.5301 54.25 33.5833C51.7545 31.868 48.7217 31 45.4667 31C42.9532 30.9995 40.4773 31.6103 38.2525 32.7796C36.0276 33.949 34.1205 35.6419 32.6955 37.7124C31.2705 39.7829 30.3704 42.1688 30.0728 44.6646C29.7752 47.1604 30.0889 49.6911 30.9871 52.0386" stroke="#F8F8F8" stroke-width="2" stroke-linecap="round" stroke-linejoin="round"/>
</svg>
